<svg width="147" height="167" viewBox="0 0 147 167" fill="none" xmlns="http://www.w3.org/2000/svg">
<path d="M139.571 161.759L146.171 66.2008C146.37 63.3129 145.061 60.5256 142.672 58.744C140.293 56.9706 137.261 56.5112 134.561 57.5157C128.333 59.8348 122.481 62.5828 117.171 65.6852C112.767 68.2565 110.205 71.3568 109.335 75.1607C107.678 82.4089 112.816 90.565 117.786 98.4541L118.702 99.9112C122.384 105.783 120.594 112.329 118.445 116.784C117.804 118.114 116.595 119.06 115.131 119.382C113.666 119.703 112.12 119.362 110.887 118.443L50.8382 73.673C50.1002 73.1227 49.3822 72.5324 48.7059 71.9186L39.7412 63.7813L43.297 62.4224C46.7337 61.1089 50.8892 62.0881 53.5075 64.8517C57.3047 68.8605 62.8398 74.5096 67.6393 78.6554C71.8313 82.2781 77.8722 87.4415 82.8901 91.7218C82.9898 91.8067 83.0902 91.8875 83.1918 91.9632C85.0418 93.3425 87.5147 93.3966 89.3423 92.0976C91.1938 90.7825 91.8756 88.5169 91.0808 86.3262L83.2355 64.7205C82.1142 61.6327 82.7248 58.2226 84.8297 55.8203L87.2251 53.087C90.836 48.965 91.2226 42.9704 88.189 38.1694L85.7373 34.2914C85.0981 33.279 84.6818 32.1304 84.5306 30.9659L81.3855 6.80586C81.1199 4.76334 80.0568 2.9552 78.3915 1.71356C75.4217 -0.500553 71.4062 -0.329447 68.8436 2.11894L23.7413 45.2222C20.1455 48.6583 17.8213 53.0908 17.0219 58.04L16.3089 62.436C15.9871 64.434 14.4067 65.9629 12.3753 66.2368L4.58911 67.2914C2.86127 67.5268 1.49339 68.7611 1.10541 70.4366C0.715857 72.111 1.388 73.8822 2.81584 74.9468L90.6842 140.458L89.6081 141.901L75.8638 131.654L72.1937 128.918L74.6881 134.762L76.5982 134.592L90.0638 144.632L92.2855 141.652L117.214 160.237C120.556 162.729 124.456 164.537 128.492 165.467L132.991 166.502C134.55 166.861 136.166 166.547 137.424 165.64C138.682 164.733 139.464 163.318 139.571 161.759ZM135.022 162.465C134.654 162.731 134.199 162.819 133.74 162.713L129.24 161.677C125.757 160.876 122.39 159.315 119.505 157.164L5.1072 71.8734C5.05246 71.8326 4.88508 71.7078 4.94472 71.4453C4.98575 71.2728 5.09641 71.1733 5.27512 71.1489L13.0613 70.0943C16.7454 69.5943 19.6149 66.8226 20.1984 63.1974L20.9112 58.8022C21.5814 54.6593 23.5261 50.948 26.5363 48.0721L71.6385 4.96862C73.0549 3.6138 74.9444 3.92525 76.1001 4.7869C76.6412 5.19034 77.3211 5.92955 77.479 7.15037L80.6242 31.3105C80.8487 33.0422 81.4697 34.7518 82.4199 36.2576L84.8727 40.1375C86.9749 43.463 86.707 47.6178 84.2048 50.4743L81.81 53.2067C78.8069 56.6344 77.9354 61.5005 79.5351 65.9048L87.3804 87.5105C87.6659 88.2991 87.1833 88.7504 86.9623 88.9067C86.7871 89.0307 86.1674 89.3951 85.4012 88.8238C85.3996 88.8227 85.3965 88.8203 85.3949 88.8192C80.3832 84.5434 74.3518 79.3869 70.1649 75.7705C65.4946 71.7352 60.0649 66.1926 56.3314 62.2521C52.5923 58.2993 46.6575 56.9098 41.7513 58.7843L38.1983 60.1429C36.9422 60.6202 36.0632 61.6949 35.8484 63.0174C35.6314 64.3394 36.1145 65.6824 37.1395 66.6113L46.1068 74.7387C46.882 75.4417 47.7025 76.1164 48.5469 76.7459L108.596 121.516C110.782 123.146 113.528 123.754 116.129 123.183C118.728 122.612 120.874 120.931 122.013 118.571C125.693 110.94 125.698 103.812 122.027 97.9566L121.105 96.4915C116.568 89.2908 111.879 81.845 113.178 76.1605C113.807 73.4075 115.8 71.0839 119.271 69.0557C124.397 66.0634 130.05 63.4083 136.074 61.1643C137.507 60.6315 139.117 60.8751 140.38 61.8172C141.652 62.7651 142.348 64.2489 142.242 65.7843L135.642 161.343C135.61 161.8 135.391 162.199 135.022 162.465Z" fill="black"/>
</svg>
