<svg width="359" height="417" viewBox="0 0 359 417" fill="none" xmlns="http://www.w3.org/2000/svg">
<path d="M330.54 232.89L235.716 90.1664C232.85 85.8533 227.882 83.2799 222.428 83.2799C217 83.2799 212.05 85.8386 209.188 90.125C202.588 100.015 197.01 110.115 192.613 120.146C188.966 128.462 188.598 135.579 191.482 141.903C196.978 153.954 213.435 160.098 229.352 166.041L232.289 167.14C244.114 171.581 248.646 182.774 250.366 191.379C250.88 193.947 250.141 196.57 248.346 198.579C246.548 200.587 243.906 201.739 241.094 201.739H104.049C102.365 201.739 100.666 201.661 99.0029 201.505L76.9538 199.441L80.6835 193.745C84.2882 188.239 91.4545 185.23 98.3175 186.382C108.272 188.055 122.569 190.218 134.143 191.024C144.254 191.73 158.762 192.667 170.803 193.433C171.042 193.448 171.278 193.456 171.51 193.456C175.732 193.456 179.419 190.914 180.679 187.134C181.956 183.305 180.479 179.365 176.917 177.095L141.781 154.713C136.759 151.515 133.925 146.024 134.386 140.383L134.91 133.964C135.699 124.285 129.71 115.36 120.01 111.753L112.172 108.841C110.128 108.08 108.261 106.889 106.766 105.396L75.73 74.4085C73.1068 71.7884 69.5699 70.3459 65.7692 70.3459C58.9916 70.3459 53.2885 74.8415 52.2072 81.0331L33.1878 190.023C31.671 198.712 33.1091 207.469 37.3493 215.346L41.1109 222.345C42.824 225.524 42.1778 229.369 39.4975 231.91L29.2298 241.654C26.9526 243.818 26.296 247.019 27.5594 249.81C28.8191 252.601 31.7421 254.405 35.0007 254.405H235.535V257.595H204.167H195.791L205.842 263.254L208.458 260.991H239.189V254.405H296.081C303.708 254.405 311.406 252.843 318.344 249.89L326.075 246.595C328.755 245.454 330.782 243.297 331.635 240.677C332.488 238.057 332.089 235.218 330.54 232.89ZM324.64 238.71C324.39 239.478 323.819 240.085 323.03 240.42L315.296 243.715C309.311 246.265 302.666 247.613 296.081 247.613H35.0007C34.8758 247.613 34.4938 247.613 34.2942 247.177C34.1657 246.889 34.2192 246.63 34.4547 246.406L44.7224 236.663C49.5797 232.051 50.7576 225.075 47.649 219.308L43.8877 212.31C40.3401 205.715 39.1339 198.384 40.4044 191.111L59.4235 82.121C60.0194 78.6966 63.1316 77.138 65.7692 77.138C67.0041 77.138 68.8099 77.4679 70.3766 79.0348L101.412 110.022C103.635 112.244 106.416 114.015 109.457 115.147L117.298 118.061C124.018 120.558 128.169 126.744 127.622 133.451L127.098 139.868C126.441 147.918 130.485 155.752 137.648 160.314L172.784 182.696C174.065 183.513 173.851 184.666 173.698 185.122C173.576 185.483 173.066 186.657 171.317 186.657C171.314 186.657 171.307 186.657 171.303 186.657C159.275 185.891 144.789 184.954 134.692 184.251C123.429 183.465 109.403 181.343 99.6168 179.699C89.8092 178.044 79.5842 182.356 74.4376 190.214L70.7115 195.907C69.3911 197.915 69.2769 200.372 70.4082 202.478C71.5358 204.586 73.7131 205.982 76.2326 206.216L98.2745 208.264C100.18 208.441 102.122 208.531 104.049 208.531H241.094C246.083 208.531 250.776 206.486 253.967 202.921C257.154 199.357 258.464 194.698 257.554 190.139C254.606 175.403 246.818 165.271 235.03 160.842L232.075 159.738C217.546 154.314 202.524 148.704 198.213 139.254C196.125 134.677 196.507 129.266 199.38 122.709C203.627 113.03 209.016 103.272 215.397 93.7052C216.917 91.4301 219.544 90.072 222.428 90.072C225.33 90.072 227.974 91.4417 229.498 93.7349L324.322 236.46C324.776 237.143 324.89 237.943 324.64 238.71Z" fill="black"/>
</svg>
