<svg xmlns="http://www.w3.org/2000/svg" xmlns:xlink="http://www.w3.org/1999/xlink" version="1.1" x="0px" y="0px" viewBox="0 0 100 125" enable-background="new 0 0 100 100" xml:space="preserve"><path d="M90.5385,56.3533l-1.8579-1.1086c-0.7107-0.4239-0.9792-1.337-0.6122-2.0781l0.2656-0.5359  c0.7426-1.4977,0.3785-3.3088-0.8855-4.4044C82.7311,44.1401,67.042,30.561,63.2267,27.3811  c-3.7023-3.0858-7.7977-4.753-11.0877-6.0928c-0.845-0.3443-1.6397-0.6673-2.361-0.9888c-2.0433-0.9097-3.2939-2.1713-4.3986-3.2852  c-0.6847-0.6909-1.3316-1.3432-2.0713-1.8c-0.7252-0.4485-1.5547-0.6571-2.6121-0.6571c-0.4423,0-0.8855,0.0367-1.3133,0.0729  c-0.6431,0.0546-1.293,0.0927-1.6262-0.015c-1.5731-0.5084-9.0347-2.8328-14.1459-4.0843  c-2.1148-0.5181-4.6062-0.7807-7.4056-0.7807c-2.3697,0-4.8524,0.1922-7.1816,0.5553c-0.7774,0.1212-1.3654,0.7011-1.4968,1.477  c-0.1313,0.7764,0.2327,1.5175,0.928,1.8883l17.175,9.1655l-0.4618,0.8727l-7.5017-3.9696l-2.003-1.06l1.6327,2.7284l0.934-0.2514  l7.3495,3.8891l0.9227-1.7437l3.2146,1.7154l-0.3988,0.1666c-0.5456,0.2274-0.9415,0.6856-1.0873,1.2578  c-0.1468,0.5717-0.0183,1.1636,0.3901,1.6711l4.1784,4.599c0.7841,0.9806,1.6725,1.8826,2.6411,2.6797  c2.4489,2.0163,7.48,6.1566,9.4702,7.7707c2.4364,1.9762,2.7415,7.2526,2.7347,11.6285c-0.0068,4.6685-2.1322,7.9532-4.6979,11.4624  c-2.4267,3.3161-3.6164,7.7871-3.263,12.2663c0.1178,1.4953,0.3525,3.4976,0.6982,5.9509c0.3824,2.7067,2.5426,4.8326,5.2522,5.1697  l4.6661,0.5813c0.1574,0.0198,0.3129,0.029,0.4664,0.029c1.0255,0,2.0173-0.4336,2.7193-1.1897  c0.7107-0.7653,1.0593-1.7614,0.9821-2.8052l-0.5572-7.4597c-0.1033-1.391,0.8546-2.6179,2.2297-2.853l2.5802-0.4418  c1.097-0.1878,2.0491-0.7957,2.6816-1.7111c0.6315-0.9159,0.8633-2.0216,0.6499-3.1147  c-0.8343-4.2706-2.2838-11.7038-2.7898-14.3444c-0.7629-3.9838,3.0148-6.131,3.7796-6.5211  c1.8058-0.9198,3.2031-0.8961,5.2068,0.1497c1.0941,0.5722,2.8632,2.7328,4.1543,4.3102c0.8913,1.0878,1.5943,1.9473,2.1061,2.3726  c0.6035,0.5012,3.5411,3.1099,8.2728,7.3463c0.8063,0.7223,0.9319,1.9255,0.2907,2.7985l-2.0433,2.7811  c-0.5813,0.7928-0.8121,1.8019-0.6325,2.7685c0.1786,0.9666,0.7551,1.8256,1.5827,2.3567c0.5784,0.3723,1.2457,0.5688,1.9294,0.5688  c1.4379,0,2.7309-0.8541,3.2948-2.1766l4.976-11.6927C92.9661,59.5472,92.2602,57.3813,90.5385,56.3533z M90.3608,60.6177  l-4.976,11.6922c-0.3708,0.8715-1.5277,1.2385-2.3359,0.7189c-0.3756-0.2409-0.6267-0.6146-0.7078-1.053  c-0.0811-0.4389,0.0193-0.8783,0.2829-1.238l2.0424-2.7811c1.2476-1.6971,1.0043-4.0369-0.5649-5.4425  c-3.3595-3.0075-7.5312-6.7321-8.3279-7.3936c-0.366-0.3042-1.0815-1.1786-1.8396-2.1047  c-1.5547-1.8985-3.3161-4.0505-4.7694-4.8099c-2.5831-1.35-4.64-1.3732-7.0203-0.1589c-2.8545,1.4552-5.6211,4.4927-4.8244,8.6547  c0.506,2.6425,1.9574,10.0786,2.7917,14.3516c0.1101,0.5654-0.0097,1.138-0.337,1.6117c-0.3274,0.4741-0.8198,0.7885-1.3876,0.8855  l-2.5802,0.4418c-2.3842,0.4085-4.0471,2.5363-3.8675,4.95l0.5572,7.4592c0.0357,0.4886-0.1275,0.955-0.4597,1.3128  c-0.3795,0.4094-0.929,0.6156-1.491,0.5442l-4.667-0.5813c-1.8251-0.2274-3.2803-1.66-3.5382-3.4831  c-0.3399-2.4137-0.5697-4.3749-0.6847-5.8307c-0.3167-4.0142,0.7358-8.0029,2.8873-10.9433  c2.672-3.6541,5.0716-7.3694,5.0794-12.627c0.0077-5.1146-0.3979-10.6783-3.4667-13.1677c-1.9883-1.6122-7.0136-5.7466-9.4586-7.761  c-0.8633-0.7102-1.6551-1.5137-2.3939-2.4354l-4.0732-4.4836l0.5205-0.2173c0.7223-0.3018,1.1318-1.1216,1.1627-1.7754  c0.029-0.6137-0.2491-1.1385-0.7455-1.4031L9.8615,12.1797c2.0723-0.296,4.2537-0.4519,6.3434-0.4519  c2.6411,0,4.9741,0.2438,6.9344,0.7238c5.0552,1.238,12.4493,3.5416,14.0088,4.0456c0.6286,0.2028,1.4581,0.1849,2.4035,0.1033  c0.3727-0.0314,0.758-0.0657,1.1443-0.0657c0.6827,0,1.1675,0.1115,1.5731,0.3616c0.5388,0.3336,1.0796,0.8787,1.7063,1.5108  c1.1656,1.1752,2.616,2.6387,4.9973,3.699c0.7407,0.3298,1.5547,0.661,2.4199,1.0139c3.1645,1.2882,7.1015,2.8912,10.5672,5.78  c3.8028,3.1688,19.4803,16.7378,24.1936,20.8211c0.5833,0.505,0.7513,1.3403,0.4094,2.0313l-0.2656,0.5355  c-0.8237,1.6605-0.2221,3.7057,1.3693,4.6554l1.8579,1.1086C90.4014,58.5748,90.7606,59.6781,90.3608,60.6177z"/><text x="0" y="115" fill="#000000" font-size="5px" font-weight="bold" font-family="'Helvetica Neue', Helvetica, Arial-Unicode, Arial, Sans-serif">Created by Iván García</text><text x="0" y="120" fill="#000000" font-size="5px" font-weight="bold" font-family="'Helvetica Neue', Helvetica, Arial-Unicode, Arial, Sans-serif">from the Noun Project</text></svg>